<svg width="22" height="22" viewBox="0 0 22 22" fill="none" xmlns="http://www.w3.org/2000/svg">
<path fill-rule="evenodd" clip-rule="evenodd" d="M0.402728 0.402728C0.939699 -0.134243 1.8103 -0.134243 2.34727 0.402728L11 9.05546L19.6527 0.402728C20.1897 -0.134243 21.0603 -0.134243 21.5973 0.402728C22.1342 0.939699 22.1342 1.8103 21.5973 2.34727L12.9445 11L21.5973 19.6527C22.1342 20.1897 22.1342 21.0603 21.5973 21.5973C21.0603 22.1342 20.1897 22.1342 19.6527 21.5973L11 12.9445L2.34727 21.5973C1.8103 22.1342 0.939699 22.1342 0.402728 21.5973C-0.134243 21.0603 -0.134243 20.1897 0.402728 19.6527L9.05546 11L0.402728 2.34727C-0.134243 1.8103 -0.134243 0.939699 0.402728 0.402728Z" fill="#212121"/>
</svg>
