<svg width="200" height="32" viewBox="0 0 200 32" fill="none" xmlns="http://www.w3.org/2000/svg">
<path d="M16.2719 31.3725V30.7033H12.9255V15.7699H22.7974V30.7033H19.451V31.3725H35.3464V30.7033H32V3.4719L35.7229 1.2549H19.0745L22.7974 3.4719V15.017H12.9255V3.4719L16.6484 1.2549H0L3.72287 3.4719V30.7033H0.37647V31.3725H16.2719ZM46.3616 31.7908C54.3094 31.7908 58.1996 26.8967 58.1996 20.7895C58.1996 14.2222 53.2218 10.0392 46.3198 10.0392C39.5015 10.0392 34.8166 14.8078 34.8166 20.7895C34.8166 27.5242 40.3381 31.7908 46.3616 31.7908ZM51.0466 30.285C47.6165 30.285 40.38 17.6941 40.38 13.5948C40.38 12.298 41.0074 11.5451 42.0532 11.5451C45.7342 11.5451 52.7616 24.6379 52.7616 28.1516C52.7616 29.5739 52.176 30.285 51.0466 30.285ZM67.8762 31.7908C71.7246 31.7908 74.4854 29.9922 76.0331 27.5242L75.9913 27.4823C75.1547 27.817 74.4436 27.9425 73.5233 27.9425C70.4279 27.9425 69.2985 26.1438 69.2985 21.2915V11.5451H75.1965V10.8758H69.2985V2.38431L57.7115 11.5033V11.5451H60.9324V23.4248C60.9324 28.8627 62.8985 31.7908 67.8762 31.7908ZM85.668 31.7908C89.5582 31.7908 92.3608 30.285 94.1176 27.6078L94.0758 27.566C93.6993 27.6497 93.281 27.6915 92.8627 27.6915C90.0601 27.6915 87.0484 26.1438 84.664 23.8013C89.6837 21.919 92.3608 18.8654 92.3608 15.3935C92.3608 12.3399 89.6418 10.0392 85.7098 10.0392C79.017 10.0392 74.9176 15.1007 74.9176 21.2078C74.9176 27.6915 79.7699 31.7908 85.668 31.7908ZM84.4131 23.5503C81.9033 20.9569 80.1046 17.4431 80.1046 13.9712C80.1046 12.4235 80.732 11.5033 81.8196 11.5033C83.6183 11.5033 86.0444 14.5987 86.0444 18.2379C86.0444 20.3712 85.5843 22.0444 84.4131 23.5503ZM106.137 31.3725V30.7033H104.045V0L93.295 3.76471L95.6793 5.81438V30.7033H93.5878V31.3725H106.137ZM116.274 32L123.259 18.0288L128.823 32H129.827L139.573 12.9255L142.376 10.8758H134.219L137.44 12.9255L133.089 24.2614L128.739 10.0392L120.708 11.6706L122.464 16.1046L119.495 24.2196L115.646 12.9255L118.449 10.8758H103.892L106.695 12.9255L115.228 32H116.274ZM143.101 31.7908C145.401 31.7908 147.618 30.6614 149.584 28.9882V31.3725H160.042V30.7033H157.95V19.1163C157.95 13.051 155.148 10.0392 149.877 10.0392C145.694 10.0392 142.599 11.7542 139.754 14.9333L139.963 15.1425C141.386 14.0549 142.682 13.5529 144.565 13.5529C147.744 13.5529 149.584 15.8536 149.584 20.4549C142.641 21.2078 138.541 23.7595 138.541 27.6078C138.541 30.2431 140.382 31.7908 143.101 31.7908ZM148.622 28.5281C146.949 28.5281 146.112 27.4824 146.112 25.5163C146.112 23.2993 147.074 21.7098 149.584 20.9987V28.4026C149.208 28.4863 148.873 28.5281 148.622 28.5281ZM179.549 31.3725V21.4588H179.507C177.332 26.6457 172.898 30.7033 169.091 30.7033H168.464L180.552 10.8758H161.227V20.6641H161.269C164.448 14.3895 168.003 11.5451 171.183 11.5451H171.643L159.47 31.3725H179.549ZM191.233 31.7908C195.123 31.7908 197.926 30.285 199.683 27.6078L199.641 27.566C199.264 27.6497 198.846 27.6915 198.428 27.6915C195.625 27.6915 192.613 26.1438 190.229 23.8013C195.249 21.919 197.926 18.8654 197.926 15.3935C197.926 12.3399 195.207 10.0392 191.275 10.0392C184.582 10.0392 180.483 15.1007 180.483 21.2078C180.483 27.6915 185.335 31.7908 191.233 31.7908ZM189.978 23.5503C187.468 20.9569 185.67 17.4431 185.67 13.9712C185.67 12.4235 186.297 11.5033 187.385 11.5033C189.183 11.5033 191.61 14.5987 191.61 18.2379C191.61 20.3712 191.149 22.0444 189.978 23.5503Z" fill="white"/>
</svg>
